<svg xmlns="http://www.w3.org/2000/svg" viewBox="0 0 64 64" fill="none">
  <circle cx="32" cy="32" r="28" fill="#1a6bb5"/>
  <ellipse cx="32" cy="32" rx="12" ry="28" stroke="#7ec8ff" stroke-width="2.5" fill="none"/>
  <path d="M6 32h52" stroke="#7ec8ff" stroke-width="2.5"/>
  <path d="M10 20h44M10 44h44" stroke="#4fa3e0" stroke-width="2" opacity="0.9"/>
  <path
    fill="#2db872"
    d="M18 26c4-3 10-4 16-3 5 1 9 3 12 6-2 4-6 7-11 8-6 2-12 1-16-2-2-2-2-6-1-9z"
  />
  <path
    fill="#c9a227"
    d="M22 38c5 2 11 3 16 1 3-1 6-3 8-6-3 5-8 9-14 10-5 1-10 0-13-3 1-1 2-1 3-2z"
  />
</svg>
