<svg xmlns="http://www.w3.org/2000/svg" viewBox="0 0 64 64" fill="none">
  <defs>
    <linearGradient id="iranGrad" x1="8" y1="8" x2="56" y2="56" gradientUnits="userSpaceOnUse">
      <stop stop-color="#0d6e4f"/>
      <stop offset="0.5" stop-color="#c9a227"/>
      <stop offset="1" stop-color="#1a3a6b"/>
    </linearGradient>
  </defs>
  <!-- Simplified colorful Iran silhouette for section headers -->
  <path
    fill="url(#iranGrad)"
    d="M18 14c3-4 9-6 15-5 6 1 11 3 16 7 3 2 5 6 5 10 0 4-1 8-3 11l-4 8c-2 4-4 7-8 9-5 2-10 2-15 0-4-2-7-5-9-9l-4-9c-2-5-1-11 2-15 1-2 3-4 5-7z"
  />
  <path
    fill="#fff"
    opacity="0.35"
    d="M28 22c4-1 9 0 12 3 2 2 3 5 2 8-1 4-4 7-8 8-4 1-8 0-11-3-2-2-3-5-2-8 1-3 4-6 7-8z"
  />
</svg>
